<svg height="512pt" viewBox="0 0 512 512" width="512pt" xmlns="http://www.w3.org/2000/svg" xmlns:xlink="http://www.w3.org/1999/xlink"><linearGradient id="a" gradientUnits="userSpaceOnUse" x1="0" x2="512" y1="256" y2="256"><stop offset="0" stop-color="#00f38d"/><stop offset="1" stop-color="#009eff"/></linearGradient><path d="m512 256c0 141.386719-114.613281 256-256 256s-256-114.613281-256-256 114.613281-256 256-256 256 114.613281 256 256zm0 0" fill="url(#a)"/><g fill="#fff"><path d="m369.007812 143.34375h-226.015624c-30.328126 0-55 24.671875-55 55v109.3125c0 30.328125 24.671874 55 55 55h226.015624c30.328126 0 55-24.671875 55-55v-109.3125c0-30.328125-24.671874-55-55-55zm25 164.3125c0 13.785156-11.214843 25-25 25h-226.015624c-13.785157 0-25-11.214844-25-25v-109.3125c0-13.785156 11.214843-25 25-25h226.015624c13.785157 0 25 11.214844 25 25zm0 0"/><path d="m240.441406 225.859375v-30h-98.550781v30h34.925781v82.898437h30v-82.898437zm0 0"/><path d="m230.714844 282.824219h25.933594v25.933593h-25.933594zm0 0"/><path d="m282.582031 282.824219h25.933594v25.933593h-25.933594zm0 0"/><path d="m334.449219 282.824219h25.933593v25.933593h-25.933593zm0 0"/></g></svg>